<?xml version="1.0" encoding="UTF-8"?>
<svg id="a" data-name="Layer 1" xmlns="http://www.w3.org/2000/svg" viewBox="0 0 559.85 201.29">
  <defs>
    <style>
      .b {
        fill: #16b7b9;
      }

      .b, .c {
        stroke-width: 0px;
      }

      .c {
        fill: #17b7b9;
      }
    </style>
  </defs>
  <path class="c" d="M79.62,49.4c-8.61,32.24-17.23,64.48-26.05,97.5-8.76-32.99-17.33-65.27-25.9-97.54l-.62.04v2.77c0,39.32-.03,78.65.07,117.97,0,2.6-.7,3.22-3.2,3.13-5.61-.19-11.23-.21-16.84,0-2.54.1-2.97-.76-2.96-3.09.07-53.38.03-106.76.1-160.14,0-3-.34-5.6-2.7-7.65-.39-.34-.9-.77-.79-1.48.66-.53,1.44-.28,2.16-.28,10.98-.02,21.96.04,32.94-.06,1.87-.02,2.58.61,3.03,2.34,4.61,17.7,9.3,35.37,13.96,53.06.19.72.22,1.5.95,2.15,3.24-12.17,6.46-24.27,9.68-36.37,1.7-6.37,3.41-12.74,5.07-19.13.36-1.37.87-2.06,2.5-2.05,9.97.09,19.95.09,29.92,0,1.8-.01,2.22.57,2.22,2.29-.09,55.97-.14,111.94-.14,167.92,0,2.05-.66,2.5-2.57,2.46-5.78-.11-11.57-.16-17.35.02-2.33.07-2.9-.62-2.89-2.91.07-39.32.05-78.64.05-117.97,0-.99,0-1.98,0-2.97-.22,0-.43,0-.65-.01Z"/>
  <path class="b" d="M148.75,0c1.24,0,1.97,0,2.69,0,18.43.04,36.87.07,55.3.12,6.18.01,11.56,1.69,15.19,7.14,2.02,3.03,2.86,6.4,2.86,9.97.03,21.83.05,43.66,0,65.49-.03,9.79-6.79,16.48-16.6,16.68-2.91.06-2.9.05-2.12,2.97,6,22.59,11.98,45.19,18.03,67.77.52,1.93.4,2.65-1.87,2.6-6.28-.13-12.57-.11-18.85,0-1.68.03-2.26-.58-2.67-2.13-6.01-22.85-12.11-45.67-18.1-68.53-.53-2.04-1.32-2.88-3.53-2.73-3.15.21-6.32.05-10.31.05,2.2,1.64,3.79,2.91,5.47,4.05,1.01.69,1.37,1.48,1.36,2.7-.04,21.5-.04,42.99,0,64.49,0,1.66-.48,2.12-2.12,2.1-6.03-.09-12.07-.13-18.1.02-2.14.05-2.61-.62-2.6-2.67.06-38.06.04-76.12.04-114.17,0-15.47-.09-30.95.07-46.42.03-3.07-.62-5.53-2.79-7.64-.41-.4-.69-.92-1.38-1.85ZM168.83,26.03c1.75,1.34,2.85,2.37,4.12,3.11,2.13,1.23,2.72,2.89,2.69,5.34-.14,12.21-.06,24.43-.07,36.64,0,1.21-.16,2.24,1.72,2.21,7.71-.1,15.42-.06,23.13-.02,1.24,0,1.79-.3,1.78-1.67-.04-14.64-.04-29.28,0-43.92,0-1.32-.42-1.72-1.72-1.71-10.3.04-20.61.02-31.66.02Z"/>
  <path class="b" d="M283.29,1.01c.9-.04,1.37-.08,1.85-.08,13.33,0,26.65.02,39.98-.04,1.65,0,2.23.37,2.45,2.14,3.06,25.22,6.25,50.42,9.36,75.63,2.94,23.8,5.82,47.61,8.74,71.42.87,7.13,1.73,14.27,2.74,21.38.24,1.69-.27,2-1.79,1.98-6.29-.06-12.57-.08-18.86.01-1.75.03-2.21-.6-2.39-2.26-.73-6.98-1.69-13.94-2.45-20.92-.22-2.03-.76-2.95-3.15-2.92-10.97.16-21.95.07-33,.07.77,1.39,2.37,2.15,3.66,3.19,1.13.9,1.72,1.7,1.48,3.33-.85,5.87-1.51,11.77-2.15,17.67-.15,1.39-.69,1.84-2.05,1.83-6.37-.05-12.74-.04-19.11,0-1.32,0-1.92-.19-1.71-1.83,2.78-21.97,5.49-43.95,8.19-65.93,2.76-22.48,5.48-44.96,8.23-67.44,1.24-10.12,2.53-20.23,3.83-30.34.17-1.32.1-2.43-.92-3.43-.95-.94-1.73-2.04-2.91-3.46ZM307.79,28.21c-.11-.02-.23-.05-.34-.07-1.59,12.93-3.17,25.86-4.77,38.79-2.17,17.58-4.34,35.15-6.58,52.72-.18,1.43.2,1.73,1.51,1.72,6.53-.04,13.07-.05,19.6,0,1.46.01,1.93-.44,1.74-1.88-.48-3.56-.85-7.13-1.29-10.7-1.76-14.43-3.53-28.85-5.3-43.28-1.52-12.43-3.05-24.86-4.58-37.29Z"/>
  <path class="b" d="M559.8,125.69c0,15.06-.03,30.12.04,45.18,0,1.86-.44,2.39-2.35,2.37-14.25-.11-28.49-.06-42.74-.13-9.95-.05-16.76-6.84-16.8-16.72-.04-13.89-.04-27.78,0-41.66.02-8.78,6.58-15.65,15.45-15.89,8.04-.22,16.09-.17,24.13-.03,2.3.04,2.91-.67,2.7-2.81-.18-1.91-.17-3.86,0-5.77.2-2.21-.41-2.97-2.82-2.95-12.32.11-24.64-.04-36.96.05-2.16.02-2.75-.62-2.55-2.66.21-2.16-.11-4.38.25-6.5,1.36-7.84,7.54-13.27,15.56-13.42,10.14-.18,20.28-.2,30.42,0,9.03.17,15.62,7.17,15.64,16.27.04,14.89.01,29.78.01,44.68ZM511.11,121.34c1.73,1.37,2.76,2.36,3.96,3.08,2.01,1.21,2.65,2.8,2.58,5.16-.18,6.34-.04,12.69-.08,19.04,0,1.29.16,1.96,1.73,1.94,6.44-.08,12.88-.06,19.32-.01,1.16,0,1.61-.31,1.61-1.54-.04-8.69-.04-17.37,0-26.06,0-1.13-.27-1.64-1.53-1.64-8.93.04-17.86.02-27.59.02Z"/>
  <path class="b" d="M279.98,201.24c-92.27,0-184.53,0-276.8.06-2.45,0-3.3-.45-3.18-3.08.24-4.98.07-4.99,4.98-4.99,183.78,0,367.55,0,551.33,0q3.48,0,3.48,3.4,0,4.61-4.53,4.61c-91.76,0-183.53,0-275.29,0Z"/>
  <path class="c" d="M425.56,87.77c2,1.47,3.32,2.59,4.78,3.47,1.46.89,1.91,2.01,1.9,3.7-.06,17.4.02,34.8-.11,52.2-.02,2.62.74,3.19,3.23,3.14,8.8-.15,17.6-.02,26.4-.09,1.79-.02,2.51.37,2.46,2.34-.13,5.94-.12,11.88,0,17.82.04,1.87-.48,2.41-2.38,2.39-10.81-.09-21.62,0-32.43-.06-10.15-.05-16.81-6.73-16.84-16.9-.05-20.5-.01-40.99-.01-61.49,0-22.25.03-44.51-.05-66.76,0-2.08.55-2.71,2.64-2.64,4.86.15,9.72.14,14.58,0,1.97-.06,2.54.51,2.52,2.5-.09,11.63.04,23.26-.11,34.88-.03,2.52.73,3.03,3.08,2.96,5.69-.17,11.4,0,17.09-.09,1.64-.02,2.37.28,2.33,2.15-.12,6.02-.11,12.05,0,18.07.03,1.8-.59,2.27-2.3,2.26-8.04-.02-16.09.08-24.13.13-.63,0-1.27,0-2.64,0Z"/>
  <path class="b" d="M369.17,88.18c.19.15.35.35.56.45,4.86,2.2,5.8,5.96,5.68,11.08-.37,15.97-.09,31.96-.19,47.94-.01,2.13.61,2.65,2.67,2.62,8.97-.11,17.93,0,26.9-.08,1.82-.02,2.5.41,2.46,2.36-.12,6.02-.1,12.05-.02,18.07.02,1.64-.48,2.13-2.14,2.12-11.06-.07-22.13.04-33.19-.07-9.55-.09-16.25-6.86-16.26-16.41-.04-43,0-86-.06-129.01,0-1.91.53-2.39,2.39-2.35,5.03.13,10.06.12,15.08,0,1.76-.04,2.26.46,2.24,2.23-.08,11.88.01,23.76-.09,35.64-.02,2.04.61,2.49,2.53,2.45,5.86-.12,11.73.02,17.6-.08,1.79-.03,2.25.54,2.22,2.27-.1,5.94-.11,11.88,0,17.82.04,1.88-.53,2.43-2.4,2.41-8.62-.09-17.25-.04-25.87-.04-.04.19-.09.39-.13.58Z"/>
  <path class="c" d="M465.09,65.39c8.1,0,15.28,0,22.47,0,.93,0,1.42.32,1.34,1.31-.04.5,0,1,0,1.51,0,33.8-.02,67.6.06,101.4,0,2.34-.64,2.95-2.91,2.87-4.69-.17-9.39-.15-14.08,0-2.1.07-2.66-.57-2.66-2.66.07-31.79-.04-63.59.16-95.38.02-3.7-1.6-6.09-4.38-9.04Z"/>
  <path class="c" d="M137.64,161.24c0,3.51-.05,7.02.02,10.53.03,1.36-.32,1.91-1.81,1.89-6.36-.08-12.73-.07-19.09,0-1.43.01-1.87-.43-1.86-1.85.06-7.1.07-14.21,0-21.31-.02-1.61.6-1.95,2.06-1.93,6.19.07,12.39.09,18.59-.01,1.71-.03,2.16.57,2.13,2.15-.08,3.51-.03,7.02-.03,10.53Z"/>
  <path class="c" d="M257.49,161.3c0,3.51-.06,7.01.03,10.52.04,1.44-.45,1.85-1.86,1.84-6.36-.06-12.71-.06-19.07,0-1.27.01-1.76-.31-1.75-1.67.06-7.26.05-14.53,0-21.79,0-1.17.37-1.62,1.58-1.61,6.44.04,12.88.06,19.32-.01,1.55-.02,1.78.66,1.76,1.96-.06,3.59-.02,7.18-.02,10.77Z"/>
  <path class="b" d="M488.89,43.09c0,3.09-.05,6.18.03,9.26.04,1.35-.29,1.92-1.78,1.9-5.35-.08-10.7-.06-16.05-.01-1.27.01-1.77-.36-1.76-1.7.05-6.26.05-12.52,0-18.77-.01-1.28.35-1.76,1.69-1.74,5.43.06,10.87.07,16.3,0,1.45-.02,1.61.63,1.59,1.81-.05,3.09-.02,6.17-.02,9.26Z"/>
</svg>